<svg id="visual" viewBox="0 0 675 1200" width="675" height="1200" xmlns="http://www.w3.org/2000/svg" xmlns:xlink="http://www.w3.org/1999/xlink" version="1.1"><rect width="675" height="1200" fill="#b4a9ff"></rect><g><g transform="translate(574 92)"><path d="M0 -16.1L13.9 -8L13.9 8L0 16.1L-13.9 8L-13.9 -8Z" fill="#6075ff"></path></g><g transform="translate(102 802)"><path d="M0 -14L12.1 -7L12.1 7L0 14L-12.1 7L-12.1 -7Z" fill="#6075ff"></path></g><g transform="translate(79 459)"><path d="M0 -15L13 -7.5L13 7.5L0 15L-13 7.5L-13 -7.5Z" fill="#6075ff"></path></g><g transform="translate(327 964)"><path d="M0 -14L12.1 -7L12.1 7L0 14L-12.1 7L-12.1 -7Z" fill="#6075ff"></path></g><g transform="translate(60 339)"><path d="M0 -13L11.3 -6.5L11.3 6.5L0 13L-11.3 6.5L-11.3 -6.5Z" fill="#6075ff"></path></g><g transform="translate(635 456)"><path d="M0 -13L11.3 -6.5L11.3 6.5L0 13L-11.3 6.5L-11.3 -6.5Z" fill="#6075ff"></path></g><g transform="translate(439 30)"><path d="M0 -15L13 -7.5L13 7.5L0 15L-13 7.5L-13 -7.5Z" fill="#6075ff"></path></g><g transform="translate(644 60)"><path d="M0 -8L6.9 -4L6.9 4L0 8L-6.9 4L-6.9 -4Z" fill="#6075ff"></path></g><g transform="translate(545 593)"><path d="M0 -10L8.7 -5L8.7 5L0 10L-8.7 5L-8.7 -5Z" fill="#6075ff"></path></g><g transform="translate(530 421)"><path d="M0 -15L13 -7.5L13 7.5L0 15L-13 7.5L-13 -7.5Z" fill="#6075ff"></path></g><g transform="translate(272 288)"><path d="M0 -12L10.4 -6L10.4 6L0 12L-10.4 6L-10.4 -6Z" fill="#6075ff"></path></g><g transform="translate(46 1061)"><path d="M0 -4L3.5 -2L3.5 2L0 4L-3.5 2L-3.5 -2Z" fill="#6075ff"></path></g><g transform="translate(576 801)"><path d="M0 -5L4.3 -2.5L4.3 2.5L0 5L-4.3 2.5L-4.3 -2.5Z" fill="#6075ff"></path></g><g transform="translate(575 222)"><path d="M0 -5L4.3 -2.5L4.3 2.5L0 5L-4.3 2.5L-4.3 -2.5Z" fill="#6075ff"></path></g><g transform="translate(301 319)"><path d="M0 -8L6.9 -4L6.9 4L0 8L-6.9 4L-6.9 -4Z" fill="#6075ff"></path></g><g transform="translate(598 639)"><path d="M0 -12L10.4 -6L10.4 6L0 12L-10.4 6L-10.4 -6Z" fill="#6075ff"></path></g><g transform="translate(429 531)"><path d="M0 -5L4.3 -2.5L4.3 2.5L0 5L-4.3 2.5L-4.3 -2.5Z" fill="#6075ff"></path></g><g transform="translate(69 735)"><path d="M0 -5L4.3 -2.5L4.3 2.5L0 5L-4.3 2.5L-4.3 -2.5Z" fill="#6075ff"></path></g><g transform="translate(17 955)"><path d="M0 -12L10.4 -6L10.4 6L0 12L-10.4 6L-10.4 -6Z" fill="#6075ff"></path></g><g transform="translate(466 906)"><path d="M0 -8L6.9 -4L6.9 4L0 8L-6.9 4L-6.9 -4Z" fill="#6075ff"></path></g><g transform="translate(29 1166)"><path d="M0 -5L4.3 -2.5L4.3 2.5L0 5L-4.3 2.5L-4.3 -2.5Z" fill="#6075ff"></path></g></g></svg>